<svg xmlns="http://www.w3.org/2000/svg" viewBox="0 0 491.6 325.83"><defs><style>.cls-1{fill:#00ab07;}.cls-2{fill:#008600;}</style></defs><g id="Layer_2" data-name="Layer 2"><path class="cls-1" d="M498.17,151.82s36.3,244.27-192.84,267.1C305.33,418.92,280.15,176.57,498.17,151.82Z" transform="translate(-8.67 -93.08)"/><path class="cls-2" d="M487.76,169.54a314.54,314.54,0,0,1-11.89,33.24q-6.78,16.32-14.76,32.11a540.17,540.17,0,0,1-36,60.84q-10,14.58-20.89,28.56c-7.33,9.25-14.85,18.34-22.81,27s-16.13,17.19-24.71,25.27c-2.15,2-4.28,4-6.46,6s-4.42,3.89-6.64,5.81l-3.33,2.89-3.42,2.79c-2.29,1.84-4.56,3.7-6.87,5.52,8.1-8.53,16.25-16.91,24-25.71,3.92-4.34,7.7-8.79,11.53-13.19,1.89-2.23,3.73-4.5,5.59-6.74s3.76-4.46,5.57-6.75l5.48-6.81,5.34-6.93,2.68-3.45,2.62-3.49,5.22-7q10.35-14.08,20.08-28.59,19.36-29.08,36.72-59.48T487.76,169.54Z" transform="translate(-8.67 -93.08)"/><path class="cls-2" d="M305.33,418.92A222.16,222.16,0,0,1,303.8,396c-.17-7.67,0-15.34.31-23s1.07-15.32,2-22.95,2.15-15.23,3.67-22.77,3.31-15,5.44-22.45,4.59-14.73,7.36-21.93a222.85,222.85,0,0,1,20.95-41.29,186.2,186.2,0,0,1,13.75-18.71A187.3,187.3,0,0,1,391,191.09c1.54-1.16,3.16-2.22,4.74-3.34l2.38-1.65,2.45-1.56c1.64-1,3.25-2.11,4.91-3.09l5-2.89a208.89,208.89,0,0,1,42.57-17.85,251.31,251.31,0,0,1,45.1-8.89,303.88,303.88,0,0,0-44.29,11.4c-1.82.57-3.59,1.25-5.37,1.92s-3.56,1.32-5.33,2l-5.25,2.2c-.88.37-1.76.72-2.62,1.11l-2.59,1.2a202.55,202.55,0,0,0-20.15,10.49,213.09,213.09,0,0,0-18.83,12.62,206.46,206.46,0,0,0-17.21,14.72,184.44,184.44,0,0,0-15.38,16.61,206.61,206.61,0,0,0-13.42,18.24,231.65,231.65,0,0,0-20.81,40.25c-2.83,7-5.34,14.2-7.56,21.45s-4.2,14.6-5.87,22a350.9,350.9,0,0,0-7.05,45.09A320.69,320.69,0,0,0,305.33,418.92Z" transform="translate(-8.67 -93.08)"/><path class="cls-1" d="M9.33,93.08S-13.6,413.42,295.26,418.91C295.26,418.91,307.2,123.76,9.33,93.08Z" transform="translate(-8.67 -93.08)"/><path class="cls-2" d="M44.07,122c13.57,7.83,26.13,17.29,38.39,27,6.16,4.87,12,10,18,15.14,3,2.51,5.84,5.22,8.73,7.87l8.63,8a770.1,770.1,0,0,1,63.73,69.11c4.9,6.11,9.84,12.2,14.7,18.34,1.23,1.52,2.41,3.09,3.58,4.66l3.51,4.71,7,9.44,7,9.44c2.36,3.13,4.5,6.41,6.73,9.63l13.21,19.41c2.19,3.24,4.39,6.47,6.43,9.81s4.16,6.63,6.21,10l12.31,20c1,1.66,2,3.37,2.94,5.07l2.88,5.11c1.92,3.41,3.85,6.81,5.72,10.24,3.79,6.84,7.55,13.69,11.2,20.59-9.24-12.64-18-25.55-26.91-38.31l-13.66-19c-4.6-6.29-8.92-12.75-13.7-18.9-9.37-12.42-18.41-25.06-28.1-37.21L195.44,283l-3.55-4.61c-1.18-1.54-2.37-3.08-3.62-4.56-4.94-6-9.8-12.05-14.7-18.07-19.8-23.9-40.15-47.35-61.57-69.83C101.2,174.77,90.41,163.58,79.05,153,67.84,142.19,56.27,131.79,44.07,122Z" transform="translate(-8.67 -93.08)"/><path class="cls-2" d="M9.33,93.08c0,5.1.26,10.18.54,15.26s.7,10.14,1.16,15.2c.9,10.11,2.22,20.18,3.75,30.2.79,5,1.65,10,2.61,15,.49,2.49.94,5,1.47,7.45l.77,3.72.82,3.71c2.2,9.88,4.8,19.66,7.66,29.34s6.18,19.24,9.84,28.64,7.67,18.66,12.15,27.68c2.21,4.53,4.61,9,7,13.37l3.73,6.56,3.93,6.45a268,268,0,0,0,17.43,24.61,248.61,248.61,0,0,0,42.85,42.24,278,278,0,0,0,25.06,16.81A272.52,272.52,0,0,0,177.07,393c4.68,1.89,9.29,4,14.06,5.63,2.37.86,4.72,1.81,7.12,2.59l7.21,2.35c2.39.83,4.85,1.45,7.28,2.15s4.86,1.43,7.31,2l7.38,1.8c1.23.29,2.46.63,3.7.89l3.72.76a402.46,402.46,0,0,0,60.41,7.72,353.88,353.88,0,0,1-60.92-5,285.76,285.76,0,0,1-59-16.7,278.72,278.72,0,0,1-27.75-13.39A252.32,252.32,0,0,1,121.65,367a244.42,244.42,0,0,1-44.34-42.84,274.63,274.63,0,0,1-32.95-52.09q-6.78-13.86-12.21-28.3c-3.59-9.62-6.72-19.4-9.48-29.28s-5-19.87-7-29.93-3.47-20.18-4.6-30.34-1.88-20.36-2.24-30.56A289,289,0,0,1,9.33,93.08Z" transform="translate(-8.67 -93.08)"/></g></svg>