<svg xmlns="http://www.w3.org/2000/svg" width="33.363" height="32.035" viewBox="0 0 33.363 32.035">
  <g id="Star" transform="translate(1.021 1)">
    <g id="Group_36" data-name="Group 36">
      <path id="Path_10" data-name="Path 10" d="M24.343,40.651,15.66,35.218,6.978,40.651a.917.917,0,0,1-1.376-1l2.484-9.937L.328,23.137a.918.918,0,0,1,.526-1.619l10.125-.707,3.83-9.5a.957.957,0,0,1,1.7,0l3.83,9.5,10.125.707a.918.918,0,0,1,.526,1.619l-7.757,6.577,2.484,9.937a.917.917,0,0,1-1.376,1Z" transform="translate(0 -10.792)" fill="none" stroke="#939393" stroke-width="2"/>
    </g>
  </g>
</svg>
