<svg xmlns="http://www.w3.org/2000/svg" width="17.822" height="20" viewBox="0 0 17.822 20">
  <g id="admin" transform="translate(-27.5)">
    <circle id="Ellipse_385" data-name="Ellipse 385" cx="2.748" cy="2.748" r="2.748" transform="translate(33.703 6.337)" fill="#504799"/>
    <path id="Path_828" data-name="Path 828" d="M129.179,331.984a4.3,4.3,0,0,0-.679,2.32v2.626h9.9V334.3a4.3,4.3,0,0,0-4.3-4.3H132.8a4.286,4.286,0,0,0-3.626,1.984Z" transform="translate(-97 -316.931)" fill="#504799"/>
    <path id="Path_829" data-name="Path 829" d="M45.322,10.7V7.122l-2.163-.515a7.106,7.106,0,0,0-.347-.837l1.166-1.894L41.447,1.345,39.552,2.51a7.1,7.1,0,0,0-.837-.347L38.2,0H34.622l-.515,2.163a7.1,7.1,0,0,0-.837.347L31.375,1.345,28.845,3.875,30.01,5.77a7.1,7.1,0,0,0-.347.837L27.5,7.122V10.7l2.163.515a7.105,7.105,0,0,0,.347.837l-1.171,1.9,1.755,1.681a5.5,5.5,0,0,1,3.426-3.459,3.936,3.936,0,1,1,4.862,0,5.5,5.5,0,0,1,3.444,3.516h0l1.643-1.761-1.157-1.88a7.1,7.1,0,0,0,.347-.837Z" fill="#504799"/>
  </g>
</svg>
