<svg xmlns="http://www.w3.org/2000/svg" width="16.901" height="20" viewBox="0 0 16.901 20">
  <g id="calendar_1_" data-name="calendar (1)" transform="translate(-7.31 -1.5)">
    <path id="Path_861" data-name="Path 861" d="M7.31,41.561a1.36,1.36,0,0,0,1.36,1.36H22.851a1.36,1.36,0,0,0,1.36-1.36V30.71H7.31Zm11.7-7.963h2.205V35.8H19.014Zm0,3.749h2.205v2.205H19.014ZM14.659,33.6h2.2V35.8h-2.2Zm0,3.749h2.2v2.205h-2.2ZM10.3,33.6H12.5V35.8H10.3Zm0,3.749H12.5v2.205H10.3Z" transform="translate(0 -21.421)" fill="#504799"/>
    <path id="Path_862" data-name="Path 862" d="M54.34,5.959a.24.24,0,0,0,.24-.24V1.74a.24.24,0,0,0-.48,0V5.719a.24.24,0,0,0,.24.24Z" transform="translate(-34.313 0)" fill="#504799"/>
    <path id="Path_863" data-name="Path 863" d="M22.851,9.4H20.739v2.112a.723.723,0,1,1-1.445,0V9.4H12.225v2.112a.723.723,0,1,1-1.443,0V9.4H8.67a1.363,1.363,0,0,0-1.36,1.36V14.6h16.9V10.76a1.363,1.363,0,0,0-1.36-1.36Z" transform="translate(0 -5.793)" fill="#504799"/>
    <path id="Path_864" data-name="Path 864" d="M22.34,6.021a.24.24,0,0,0,.243-.24V1.8a.243.243,0,0,0-.483,0V5.781a.24.24,0,0,0,.24.24Z" transform="translate(-10.846 -0.063)" fill="#504799"/>
  </g>
</svg>
