<svg xmlns="http://www.w3.org/2000/svg" width="16.667" height="20" viewBox="0 0 16.667 20">
  <g id="clipboard" transform="translate(-34.135)">
    <g id="Group_1154" data-name="Group 1154" transform="translate(39.552)">
      <g id="Group_1153" data-name="Group 1153" transform="translate(0)">
        <path id="Path_819" data-name="Path 819" d="M150.065,0H145.9a.836.836,0,0,0-.833.833V2.917a.836.836,0,0,0,.833.833h4.167a.836.836,0,0,0,.833-.833V.833A.836.836,0,0,0,150.065,0Z" transform="translate(-145.065)" fill="#504799"/>
      </g>
    </g>
    <g id="Group_1156" data-name="Group 1156" transform="translate(34.135 1.667)">
      <g id="Group_1155" data-name="Group 1155" transform="translate(0)">
        <path id="Path_820" data-name="Path 820" d="M49.135,34.135h-2.5V35.8a1.672,1.672,0,0,1-1.667,1.667h-5A1.672,1.672,0,0,1,38.3,35.8V34.135H35.8A1.672,1.672,0,0,0,34.135,35.8v15A1.672,1.672,0,0,0,35.8,52.468H49.135A1.672,1.672,0,0,0,50.8,50.8v-15A1.672,1.672,0,0,0,49.135,34.135ZM37.468,40.8h5v1.667h-5ZM45.8,49.135H37.468V47.468H45.8ZM47.468,45.8h-10V44.135h10Z" transform="translate(-34.135 -34.135)" fill="#504799"/>
      </g>
    </g>
  </g>
</svg>
