<svg xmlns="http://www.w3.org/2000/svg" width="20" height="20" viewBox="0 0 20 20">
  <g id="Dashboard" transform="translate(-2 -2)">
    <path id="Path_769" data-name="Path 769" d="M9.857,2H2.714A.714.714,0,0,0,2,2.714V9.857a.714.714,0,0,0,.714.714H9.857a.714.714,0,0,0,.714-.714V2.714A.714.714,0,0,0,9.857,2Z" fill="#d8d6ff"/>
    <path id="Path_770" data-name="Path 770" d="M25.857,2H18.714A.714.714,0,0,0,18,2.714V9.857a.714.714,0,0,0,.714.714h7.143a.714.714,0,0,0,.714-.714V2.714A.714.714,0,0,0,25.857,2Z" transform="translate(-4.571)" fill="#d8d6ff"/>
    <path id="Path_771" data-name="Path 771" d="M9.857,18H2.714A.714.714,0,0,0,2,18.714v7.143a.714.714,0,0,0,.714.714H9.857a.714.714,0,0,0,.714-.714V18.714A.714.714,0,0,0,9.857,18Z" transform="translate(0 -4.571)" fill="#d8d6ff"/>
    <path id="Path_772" data-name="Path 772" d="M25.857,21.571H23V18.714a.714.714,0,1,0-1.429,0v2.857H18.714a.714.714,0,1,0,0,1.429h2.857v2.857a.714.714,0,0,0,1.429,0V23h2.857a.714.714,0,0,0,0-1.429Z" transform="translate(-4.571 -4.571)" fill="#d8d6ff"/>
  </g>
</svg>
