<svg xmlns="http://www.w3.org/2000/svg" width="21.429" height="20" viewBox="0 0 21.429 20">
  <g id="_x31_4_comment" transform="translate(-1 -2)">
    <path id="Path_865" data-name="Path 865" d="M20.286,2H3.143A2.145,2.145,0,0,0,1,4.143V15.571a2.145,2.145,0,0,0,2.143,2.143H5.286v3.571a.715.715,0,0,0,1.161.558l5.161-4.129h8.678a2.145,2.145,0,0,0,2.143-2.143V4.143A2.145,2.145,0,0,0,20.286,2ZM11.714,12H6a.714.714,0,1,1,0-1.429h5.714a.714.714,0,1,1,0,1.429Zm5.714-2.857H6A.714.714,0,0,1,6,7.714H17.429a.714.714,0,1,1,0,1.429Z" fill="#504799"/>
  </g>
</svg>
