<svg xmlns="http://www.w3.org/2000/svg" width="20" height="20" viewBox="0 0 20 20">
  <g id="layer1" transform="translate(-0.529 -291.179)">
    <path id="path52" d="M10.518,291.179a1,1,0,0,0-.99,1.016v8.038a1,1,0,1,0,2,0V292.2a1,1,0,0,0-1.012-1.016Zm5.835,2.015c-.033,0-.065,0-.1,0a1.006,1.006,0,0,0-.555,1.773A8,8,0,1,1,5.328,295a1.008,1.008,0,0,0,.111-1.417,1,1,0,0,0-1.41-.112,10.075,10.075,0,0,0,6.5,17.708,10.074,10.074,0,0,0,6.46-17.738,1,1,0,0,0-.641-.247Z" transform="translate(0 0)" fill="#504799"/>
  </g>
</svg>
