<svg id="users_1_" data-name="users (1)" xmlns="http://www.w3.org/2000/svg" width="20" height="11.719" viewBox="0 0 20 11.719">
  <path id="Path_852" data-name="Path 852" d="M186.859,2.93A2.93,2.93,0,1,1,183.93,0,2.93,2.93,0,0,1,186.859,2.93Zm0,0" transform="translate(-173.93)" fill="#504799"/>
  <path id="Path_853" data-name="Path 853" d="M136,184.688h9.375a4.688,4.688,0,0,0-9.375,0Zm0,0" transform="translate(-130.688 -172.969)" fill="#504799"/>
  <path id="Path_854" data-name="Path 854" d="M34.516,61.758A1.758,1.758,0,1,1,32.758,60,1.758,1.758,0,0,1,34.516,61.758Zm0,0" transform="translate(-29.789 -57.656)" fill="#504799"/>
  <path id="Path_855" data-name="Path 855" d="M394.516,61.758A1.758,1.758,0,1,1,392.758,60,1.758,1.758,0,0,1,394.516,61.758Zm0,0" transform="translate(-375.727 -57.656)" fill="#504799"/>
  <path id="Path_856" data-name="Path 856" d="M378.137,180a2.917,2.917,0,0,0-2.352,1.2,5.8,5.8,0,0,1,1.18,3.489h4.141V182.93A2.963,2.963,0,0,0,378.137,180Zm0,0" transform="translate(-361.106 -172.969)" fill="#504799"/>
  <path id="Path_857" data-name="Path 857" d="M5.321,181.2A2.917,2.917,0,0,0,2.969,180,2.963,2.963,0,0,0,0,182.93v1.758H4.141A5.8,5.8,0,0,1,5.321,181.2Zm0,0" transform="translate(0 -172.969)" fill="#504799"/>
</svg>
