<svg xmlns="http://www.w3.org/2000/svg" width="20" height="19.199" viewBox="0 0 20 19.199">
  <g id="wallet-filled-money-tool" transform="translate(0 -17.84)">
    <g id="Group_1152" data-name="Group 1152" transform="translate(0 17.84)">
      <path id="Path_777" data-name="Path 777" d="M160.592,21.495l7.973-2.176-.422-.853a1.124,1.124,0,0,0-1.5-.508L159.5,21.495Z" transform="translate(-155.918 -17.84)" fill="#504799"/>
      <path id="Path_778" data-name="Path 778" d="M329.89,86.46a1.123,1.123,0,0,0-.3.04l-1.873.512L322,88.573h9.323l-.35-1.285A1.121,1.121,0,0,0,329.89,86.46Z" transform="translate(-314.768 -84.919)" fill="#504799"/>
      <path id="Path_779" data-name="Path 779" d="M17.725,215.56H1.125a1.124,1.124,0,0,0-1.085.829,1.162,1.162,0,0,0-.04.294V229.2a1.123,1.123,0,0,0,1.123,1.123h16.6a1.123,1.123,0,0,0,1.123-1.123v-3.133H12.182a1.91,1.91,0,0,1-1.909-1.909v-2.5a1.906,1.906,0,0,1,1.907-1.907h6.666v-3.066A1.12,1.12,0,0,0,17.725,215.56Z" transform="translate(0 -211.119)" fill="#504799"/>
      <path id="Path_780" data-name="Path 780" d="M500.975,437.055a1.122,1.122,0,0,0-.393-.234,1.146,1.146,0,0,0-.364-.061h-6.7a1.123,1.123,0,0,0-1.123,1.123v2.5a1.123,1.123,0,0,0,1.123,1.123h6.7a1.145,1.145,0,0,0,.364-.061,1.089,1.089,0,0,0,.393-.234,1.119,1.119,0,0,0,.366-.829v-2.5A1.119,1.119,0,0,0,500.975,437.055Zm-5.107,2.3a.562.562,0,0,1-.561.561h-.373a.562.562,0,0,1-.561-.561v-.373a.55.55,0,0,1,.216-.44.568.568,0,0,1,.346-.121h.373a.562.562,0,0,1,.561.561v.373Z" transform="translate(-481.341 -427.352)" fill="#504799"/>
    </g>
  </g>
</svg>
