<svg xmlns="http://www.w3.org/2000/svg" width="20" height="20" viewBox="0 0 20 20">
  <g id="world_1_" data-name="world (1)" transform="translate(-0.003)">
    <path id="Path_859" data-name="Path 859" d="M10,0A10.088,10.088,0,0,0,8.392.131,2.236,2.236,0,0,0,9.3.245c1.348-.064,2.183.193,1.219.578s-.784.8-.335.827,1.5-.448,1.846-.026-.4,1.151.051,1.923c.676,1.15-1.636,1.413-2.22,2.275a2.538,2.538,0,0,0-.239,2.915c.643,1.194.794.473,1.923.6,2.227.258,1.561,2,4.3,2.548,1.05.209.328,2.489-1.514,3.589-1.776,1.059-1.215,2.274-3.738,3.084-.606.195-1.068.083-.6-.592.91-1.308.831-2.766,0-3.419s-1.763-.795-1.538-1.8,1.095-1.357,1.156-2.26c.06-.871-1.323-3.837-3.051-3.25-.987.336-2.9-.92-2.795-2.564.117-1.91,1.58-2.2,1.252-3.339a.055.055,0,0,1,0-.011A10,10,0,1,0,10,0Z" fill="#504799"/>
  </g>
</svg>
