<svg xmlns="http://www.w3.org/2000/svg" width="15.66" height="15" viewBox="0 0 15.66 15">
  <g id="Star" transform="translate(0 -10.792)">
    <g id="Group_36" data-name="Group 36" transform="translate(0 10.792)">
      <path id="Path_10" data-name="Path 10" d="M12.171,25.721,7.83,23,3.489,25.721a.459.459,0,0,1-.688-.5l1.242-4.968L.164,16.964a.459.459,0,0,1,.263-.81L5.49,15.8,7.4,11.052a.478.478,0,0,1,.851,0l1.915,4.75,5.062.354a.459.459,0,0,1,.263.81l-3.879,3.289,1.242,4.968a.459.459,0,0,1-.688.5Z" transform="translate(0 -10.792)" fill="#ffcb1d"/>
    </g>
  </g>
</svg>
